<svg width="16" height="17" viewBox="0 0 16 17" fill="none" xmlns="http://www.w3.org/2000/svg">
<rect width="16" height="17" fill="#F5F5F5"/>
<g id="ashwiiinn_Product Listing Page Design (Inventory)_V3">
<rect width="1600" height="1119" transform="translate(-531 -523)" fill="white"/>
<g id="Rectangle 4572" filter="url(#filter0_d_0_1)">
<rect x="-390.998" y="-91.7139" width="1320" height="615.895" rx="15" fill="white"/>
</g>
<g id="Group 17711">
<g id="Group 17700">
<rect id="Rectangle 4570" x="-356.332" y="-18.6318" width="386.277" height="54" rx="5.5" fill="#F5F5F5" stroke="#D7D7D7"/>
<g id="Calendar">
<g id="Calendar_2">
<path id="Calendar_3" fill-rule="evenodd" clip-rule="evenodd" d="M11.6757 0.675182L11.6766 1.29987C13.9721 1.47978 15.4885 3.044 15.4909 5.44279L15.5 12.4643C15.5033 15.0796 13.8602 16.6888 11.2265 16.693L4.79324 16.7013C2.17599 16.7047 0.512347 15.0571 0.509056 12.4343L0.500006 5.49527C0.496714 3.08064 1.95961 1.52059 4.25514 1.30986L4.25432 0.685177C4.2535 0.318694 4.52501 0.042999 4.88703 0.042999C5.24905 0.0421661 5.52057 0.317028 5.52139 0.683512L5.52221 1.26655L10.4095 1.25989L10.4087 0.676848C10.4078 0.310365 10.6794 0.0355028 11.0414 0.0346699C11.3952 0.0338369 11.6749 0.308699 11.6757 0.675182ZM1.7679 5.75264L14.2247 5.73598V5.44446C14.1893 3.65369 13.2908 2.71416 11.6782 2.57423L11.679 3.21558C11.679 3.57373 11.4001 3.85775 11.0463 3.85775C10.6843 3.85859 10.412 3.5754 10.412 3.21724L10.4111 2.54258L5.52386 2.54924L5.52468 3.22307C5.52468 3.58206 5.25399 3.86525 4.89197 3.86525C4.52995 3.86608 4.25761 3.58373 4.25761 3.22474L4.25679 2.58339C2.65238 2.74415 1.76461 3.68701 1.76708 5.4936L1.7679 5.75264ZM10.6999 9.53824V9.54741C10.7082 9.93055 11.0208 10.2212 11.4001 10.2129C11.7704 10.2037 12.0657 9.8864 12.0575 9.50326C12.0402 9.13678 11.7432 8.83776 11.3738 8.83859C10.9953 8.84692 10.6991 9.1551 10.6999 9.53824ZM11.3795 13.278C11.0011 13.2697 10.6958 12.954 10.695 12.5709C10.6868 12.1878 10.9904 11.8704 11.3688 11.8612H11.3771C11.7638 11.8612 12.0772 12.1769 12.0772 12.5684C12.0781 12.9599 11.7654 13.2772 11.3795 13.278ZM7.3101 9.55157C7.32655 9.93471 7.64003 10.2337 8.01851 10.2171C8.38875 10.1996 8.68413 9.88307 8.66767 9.49993C8.65862 9.12512 8.3542 8.8336 7.98395 8.83443C7.60547 8.85109 7.30928 9.16843 7.3101 9.55157ZM8.0218 13.2406C7.64332 13.2572 7.33067 12.9582 7.31339 12.5751C7.31339 12.1919 7.60877 11.8754 7.98724 11.8579C8.35749 11.8571 8.66274 12.1486 8.67097 12.5226C8.68824 12.9066 8.39205 13.2231 8.0218 13.2406ZM3.92027 9.58072C3.93673 9.96386 4.2502 10.2637 4.62868 10.2462C4.99893 10.2296 5.2943 9.91222 5.27703 9.52908C5.2688 9.15427 4.96437 8.86275 4.5933 8.86358C4.21483 8.88024 3.91945 9.19758 3.92027 9.58072ZM4.63197 13.2447C4.2535 13.2622 3.94084 12.9624 3.92356 12.5792C3.92274 12.1961 4.21894 11.8787 4.59742 11.8621C4.96766 11.8612 5.27291 12.1528 5.28114 12.5276C5.29842 12.9107 5.00304 13.2281 4.63197 13.2447Z" fill="#535353"/>
</g>
</g>
</g>
</g>
</g>
<defs>
<filter id="filter0_d_0_1" x="-405.998" y="-106.714" width="1350" height="645.895" filterUnits="userSpaceOnUse" color-interpolation-filters="sRGB">
<feFlood flood-opacity="0" result="BackgroundImageFix"/>
<feColorMatrix in="SourceAlpha" type="matrix" values="0 0 0 0 0 0 0 0 0 0 0 0 0 0 0 0 0 0 127 0" result="hardAlpha"/>
<feOffset/>
<feGaussianBlur stdDeviation="7.5"/>
<feComposite in2="hardAlpha" operator="out"/>
<feColorMatrix type="matrix" values="0 0 0 0 0 0 0 0 0 0 0 0 0 0 0 0 0 0 0.06 0"/>
<feBlend mode="normal" in2="BackgroundImageFix" result="effect1_dropShadow_0_1"/>
<feBlend mode="normal" in="SourceGraphic" in2="effect1_dropShadow_0_1" result="shape"/>
</filter>
</defs>
</svg>
