<svg width="24" height="22" viewBox="0 0 24 22" fill="none" xmlns="http://www.w3.org/2000/svg">
<path fill-rule="evenodd" clip-rule="evenodd" d="M16.5041 0.565424C17.214 0.565424 17.9227 0.665549 18.5966 0.891674C22.749 2.24167 24.2452 6.79792 22.9954 10.7804C22.2866 12.8155 21.1279 14.6729 19.6102 16.1905C17.4379 18.2943 15.054 20.1618 12.4879 21.7705L12.2066 21.9404L11.9141 21.7593C9.33899 20.1618 6.94162 18.2943 4.749 16.1793C3.2415 14.6617 2.08162 12.8155 1.36162 10.7804C0.0903702 6.79792 1.58662 2.24167 5.784 0.868049C6.11025 0.755549 6.44662 0.676799 6.78412 0.632924H6.91912C7.23525 0.586799 7.54912 0.565424 7.86412 0.565424H7.98787C8.69662 0.586799 9.38287 0.710549 10.0477 0.936674H10.1141C10.1591 0.958049 10.1929 0.981674 10.2154 1.00305C10.464 1.08292 10.6991 1.17292 10.9241 1.29667L11.3516 1.48792C11.4549 1.54302 11.5709 1.6272 11.6711 1.69995C11.7346 1.74605 11.7917 1.78756 11.8354 1.81417C11.8537 1.82501 11.8724 1.8359 11.8912 1.84688C11.9877 1.90319 12.0881 1.96184 12.1729 2.0268C13.4227 1.07167 14.9404 0.554174 16.5041 0.565424ZM19.4966 8.66542C19.9579 8.65305 20.3516 8.28292 20.3854 7.8093V7.67542C20.4191 6.0993 19.464 4.67167 18.0116 4.12042C17.5504 3.9618 17.0441 4.21042 16.8754 4.68292C16.7179 5.15542 16.9654 5.67292 17.4379 5.84055C18.159 6.11055 18.6416 6.82042 18.6416 7.6068V7.64167C18.6202 7.8993 18.6979 8.14792 18.8554 8.33917C19.0129 8.53042 19.2491 8.6418 19.4966 8.66542Z" fill="#FF0000"/>
</svg>
